<?xml version="1.0" standalone="no"?>
<!DOCTYPE svg PUBLIC "-//W3C//DTD SVG 1.1//EN" "http://www.w3.org/Graphics/SVG/1.1/DTD/svg11.dtd" >
<svg xmlns="http://www.w3.org/2000/svg" xmlns:xlink="http://www.w3.org/1999/xlink" version="1.1">
<metadata>
Created by FontForge 20170731 at Sat Jul 25 10:43:59 2020
 By Aleksey,,,
Generated by Glyphter
</metadata>
<defs>
<font id="Dungeon-Swap" horiz-adv-x="1024" >
  <font-face 
    font-family="Dungeon-Swap"
    font-weight="400"
    font-stretch="normal"
    units-per-em="1024"
    panose-1="2 0 5 3 0 0 0 0 0 0"
    ascent="1024"
    descent="0"
    x-height="1024"
    cap-height="1024"
    bbox="0 0 1024 1024"
    underline-thickness="0"
    underline-position="10"
    unicode-range="U+0021-007A"
  />
<missing-glyph 
 />
    <glyph glyph-name=".notdef" 
 />
    <glyph glyph-name=".notdef" 
 />
    <glyph glyph-name=".null" horiz-adv-x="0" 
 />
    <glyph glyph-name="nonmarkingreturn" 
 />
    <glyph glyph-name="exclam" unicode="!" 
d="M640 1024v-256v-256h-256v512h256v0zM640 256v-128v-128h-256v256h256v0z" />
    <glyph glyph-name="percent" unicode="%" 
d="M384 1024v-128v-128h-256v256h256v0zM384 512v-256v-256h-256v512h256v0zM640 768v-128v-128h-256v256h256v0zM896 1024v-128v-128h-256v256h256v0zM896 256v-128v-128h-256v256h256v0z" />
    <glyph glyph-name="parenleft" unicode="(" 
d="M512 768v-256v-256h-255v512h255v0zM768 1024v-128v-128h-256v256h256v0zM768 256v-128v-128h-256v256h256v0z" />
    <glyph glyph-name="parenright" unicode=")" 
d="M512 1024v-128v-128h-256v256h256v0zM512 256v-128v-128h-256v256h256v0zM768 768v-256v-256h-256v512h256v0z" />
    <glyph glyph-name="plus" unicode="+" 
d="M1024 683v-171v-171h-1024v342h1024v0zM683 1024v-512v-512h-342v1024h342v0z" />
    <glyph glyph-name="hyphen" unicode="-" 
d="M1024 683v-171v-170h-1024v341h1024v0z" />
    <glyph glyph-name="zero" unicode="0" 
d="M384 768v-256v-256h-256v512h256v0zM640 1024v-128v-128h-256v256h256v0zM640 256v-128v-128h-256v256h256v0zM896 768v-256v-256h-256v512h256v0zM896 768v-256v-256h-256v512h256v0zM896 768v-256v-256h-256v512h256v0z" />
    <glyph glyph-name="one" unicode="1" 
d="M400 1024v-128v-128h-272v256h272v0zM640 1024v-392v-392h-256v784h256v0zM896 256v-128v-128h-768v256h768v0z" />
    <glyph glyph-name="two" unicode="2" 
d="M896 1024v-128v-128h-768v256h768v0zM896 256v-128v-128h-768v256h768v0zM640 512v-136v-136h-256v272h256v0zM896 784v-136v-136h-256v272h256v0z" />
    <glyph glyph-name="three" unicode="3" 
d="M656 1024v-128v-128h-528v256h528v0zM400 256v-128v-128h-272v256h272v0zM896 512v-256v-256h-512v512h512v0zM896 1024v-264v-264h-256v528h256v0z" />
    <glyph glyph-name="four" unicode="4" 
d="M384 1024v-136v-136h-256v272h256v0zM656 768v-128v-128h-528v256h528v0zM896 1024v-512v-512h-256v1024h256v0z" />
    <glyph glyph-name="five" unicode="5" 
d="M640 768v-128v-128h-512v256h512v0zM896 1024v-128v-128h-512v256h512v0zM896 256v-128v-128h-768v256h768v0zM896 512v-136v-136h-256v272h256v0zM384 800h128h128v-256h-256v256v0z" />
    <glyph glyph-name="six" unicode="6" 
d="M639 1024v-256v-256h-512v512h512v0zM383 528v-264v-264h-256v528h256v0zM898 1024v-128v-128h-275v256h275v0zM895 512v-136v-136h-256v272h256v0zM895 256v-128v-128h-528v256h528v0z" />
    <glyph glyph-name="seven" unicode="7" 
d="M896 1024v-128v-128h-768v256h768v0zM640 512v-256v-256h-256v512h256v0zM896 784v-136v-136h-256v272h256v0z" />
    <glyph glyph-name="eight" unicode="8" 
d="M384 1024v-264v-264h-256v528h256v0zM896 512v-256v-256h-768v512h768v0zM896 1024v-264v-264h-256v528h256v0zM656 1024v-128v-128h-288v256h288v0z" />
    <glyph glyph-name="nine" unicode="9" 
d="M656 1024v-128v-128h-528v256h528v0zM384 784v-136v-136h-256v272h256v0zM656 512v-128v-128h-272v256h272v0zM896 1024v-512v-512h-256v1024h256v0z" />
    <glyph glyph-name="question" unicode="?" 
d="M896 1024v-128v-128h-768v256h768v0zM640 256v-128v-128h-256v256h256v0zM896 784v-136v-136h-256v272h256v0z" />
    <glyph glyph-name="A" unicode="A" 
d="M896 768v-128v-128h-768v256h768v0zM640 1024v-136v-136h-256v272h256v0zM384 528v-264v-264h-256v528h256v0zM896 528v-264v-264h-256v528h256v0z" />
    <glyph glyph-name="B" unicode="B" 
d="M384 1024v-264v-264h-256v528h256v0zM640 1024v-128v-128h-272v256h272v0zM640 512v-256v-256h-512v512h512v0zM896 768v-128v-128h-256v256h256v0zM896 256v-128v-128h-272v256h272v0z" />
    <glyph glyph-name="C" unicode="C" 
d="M384 1024v-512v-512h-256v1024h256v0zM896 1024v-128v-128h-528v256h528v0zM896 256v-128v-128h-528v256h528v0z" />
    <glyph glyph-name="D" unicode="D" 
d="M384 1024v-512v-512h-256v1024h256v0zM640 1024v-128v-128h-272v256h272v0zM640 256v-128v-128h-272v256h272v0zM896 768v-256v-256h-256v512h256v0z" />
    <glyph glyph-name="E" unicode="E" 
d="M640 1024v-256v-256h-512v512h512v0zM384 528v-144v-144h-256v288h256v0zM896 256v-128v-128h-768v256h768v0zM896 1024v-128v-128h-272v256h272v0z" />
    <glyph glyph-name="F" unicode="F" 
d="M896 1024v-128v-128h-768v256h768v0zM384 784v-392v-392h-256v784h256v0zM640 512v-128v-128h-272v256h272v0z" />
    <glyph glyph-name="G" unicode="G" 
d="M896 1024v-128v-128h-768v256h768v0zM384 784v-392v-392h-256v784h256v0zM896 256v-128v-128h-528v256h528v0zM896 512v-136v-136h-256v272h256v0z" />
    <glyph glyph-name="H" unicode="H" 
d="M384 1024v-512v-512h-256v1024h256v0zM656 512v-128v-128h-288v256h288v0zM896 1024v-512v-512h-256v1024h256v0z" />
    <glyph glyph-name="I" unicode="I" 
d="M896 1024v-128v-128h-768v256h768v0zM896 256v-128v-128h-768v256h768v0zM640 784v-272v-272h-256v544h256v0z" />
    <glyph glyph-name="J" unicode="J" 
d="M896 1024v-128v-128h-768v256h768v0zM400 256v-128v-128h-272v256h272v0zM640 784v-392v-392h-256v784h256v0z" />
    <glyph glyph-name="K" unicode="K" 
d="M384 1024v-512v-512h-256v1024h256v0zM640 768v-128v-128h-272v256h272v0zM896 1024v-128v-128h-256v256h256v0zM896 512v-256v-256h-256v512h256v0z" />
    <glyph glyph-name="L" unicode="L" 
d="M384 1024v-512v-512h-256v1024h256v0zM896 256v-128v-128h-528v256h528v0z" />
    <glyph glyph-name="M" unicode="M" 
d="M896 1024v-256v-256h-768v512h768v0zM384 528v-264v-264h-256v528h256v0zM896 528v-264v-264h-256v528h256v0z" />
    <glyph glyph-name="N" unicode="N" 
d="M384 1024v-512v-512h-256v1024h256v0zM640 1024v-128v-128h-272v256h272v0zM896 768v-384v-384h-256v768h256v0z" />
    <glyph glyph-name="O" unicode="O" 
d="M384 1024v-512v-512h-256v1024h256v0zM656 1024v-128v-128h-288v256h288v0zM656 256v-128v-128h-288v256h288v0zM896 1024v-512v-512h-256v1024h256v0z" />
    <glyph glyph-name="P" unicode="P" 
d="M896 1024v-256v-256h-768v512h768v0zM384 528v-264v-264h-256v528h256v0z" />
    <glyph glyph-name="Q" unicode="Q" 
d="M896 1024v-256v-256h-768v512h768v0zM896 528v-264v-264h-256v528h256v0z" />
    <glyph glyph-name="R" unicode="R" 
d="M384 1024v-512v-512h-256v1024h256v0zM640 1024v-128v-128h-272v256h272v0zM640 512v-128v-128h-272v256h272v0zM896 768v-128v-128h-256v256h256v0zM896 256v-128v-128h-256v256h256v0z" />
    <glyph glyph-name="S" unicode="S" 
d="M896 1024v-128v-128h-768v256h768v0zM384 784v-136v-136h-256v272h256v0zM400 256v-128v-128h-272v256h272v0zM896 512v-256v-256h-512v512h512v0zM400 256v-128v-128h-272v256h272v0zM400 256v-128v-128h-272v256h272v0z" />
    <glyph glyph-name="T" unicode="T" 
d="M896 1024v-128v-128h-768v256h768v0zM640 784v-392v-392h-256v784h256v0z" />
    <glyph glyph-name="U" unicode="U" 
d="M384 1024v-512v-512h-256v1024h256v0zM656 256v-128v-128h-288v256h288v0zM896 1024v-512v-512h-256v1024h256v0z" />
    <glyph glyph-name="V" unicode="V" 
d="M384 1024v-384v-384h-256v768h256v0zM640 256v-128v-128h-256v256h256v0zM896 1024v-384v-384h-256v768h256v0z" />
    <glyph glyph-name="W" unicode="W" 
d="M384 1024v-264v-264h-256v528h256v0zM896 512v-256v-256h-768v512h768v0zM896 1024v-264v-264h-256v528h256v0z" />
    <glyph glyph-name="X" unicode="X" 
d="M384 1024v-128v-128h-256v256h256v0zM384 512v-256v-256h-256v512h256v0zM640 768v-128v-128h-256v256h256v0zM896 1024v-128v-128h-256v256h256v0zM896 512v-256v-256h-256v512h256v0z" />
    <glyph glyph-name="Y" unicode="Y" 
d="M384 1024v-256v-256h-256v512h256v0zM640 512v-256v-256h-256v512h256v0zM896 1024v-256v-256h-256v512h256v0z" />
    <glyph glyph-name="Z" unicode="Z" 
d="M384 1024v-128v-128h-255v256h255v0zM384 1024v-128v-128h-255v256h255v0zM640 1024v-256v-256h-511v512h511v0zM896 256v-128v-128h-767v256h767v0zM896 1024v-128v-128h-272v256h272v0zM896 512v-128v-128h-256v256h256v0zM640 1024v-128v-128h-256v256h256v0zM384 256
v-128v-128h-255v256h255v0zM640 256v-128v-128h-256v256h256v0zM896 1024v-128v-128h-256v256h256v0zM896 512v-128v-128h-256v256h256v0zM896 256v-128v-128h-256v256h256v0zM640 1024v-128v-128h-256v256h256v0zM384 256v-128v-128h-255v256h255v0zM640 256v-128v-128
h-256v256h256v0zM896 1024v-128v-128h-256v256h256v0zM896 512v-136v-136h-256v272h256v0zM896 256v-128v-128h-256v256h256v0z" />
    <glyph glyph-name="bracketleft" unicode="[" 
d="M768 1024v-128v-128h-512v256h512v0zM768 256v-128v-128h-512v256h512v0zM512 784v-272v-272h-256v544h256v0z" />
    <glyph glyph-name="bracketright" unicode="]" 
d="M528 1024v-128v-128h-272v256h272v0zM768 1024v-512v-512h-256v1024h256v0zM528 256v-128v-128h-272v256h272v0z" />
    <glyph glyph-name="asciicircum" unicode="^" 
d="M341 512v-170v-171h-341v341h341v0zM683 854v-171v-171h-342v342h342v0zM1024 512v-170v-171h-341v341h341v0z" />
    <glyph glyph-name="a" unicode="a" 
d="M896 768v-128v-128h-768v256h768v0zM640 1024v-136v-136h-256v272h256v0zM384 528v-264v-264h-256v528h256v0zM896 528v-264v-264h-256v528h256v0z" />
    <glyph glyph-name="b" unicode="b" 
d="M384 1024v-264v-264h-256v528h256v0zM640 1024v-128v-128h-272v256h272v0zM640 512v-256v-256h-512v512h512v0zM896 768v-128v-128h-256v256h256v0zM896 256v-128v-128h-272v256h272v0z" />
    <glyph glyph-name="c" unicode="c" 
d="M384 1024v-512v-512h-256v1024h256v0zM896 1024v-128v-128h-528v256h528v0zM896 256v-128v-128h-528v256h528v0z" />
    <glyph glyph-name="d" unicode="d" 
d="M384 1024v-512v-512h-256v1024h256v0zM640 1024v-128v-128h-272v256h272v0zM640 256v-128v-128h-272v256h272v0zM896 768v-256v-256h-256v512h256v0z" />
    <glyph glyph-name="e" unicode="e" 
d="M640 1024v-256v-256h-512v512h512v0zM384 528v-144v-144h-256v288h256v0zM896 256v-128v-128h-768v256h768v0zM896 1024v-128v-128h-272v256h272v0z" />
    <glyph glyph-name="f" unicode="f" 
d="M896 1024v-128v-128h-768v256h768v0zM384 784v-392v-392h-256v784h256v0zM640 512v-128v-128h-272v256h272v0z" />
    <glyph glyph-name="g" unicode="g" 
d="M896 1024v-128v-128h-768v256h768v0zM384 784v-392v-392h-256v784h256v0zM896 256v-128v-128h-528v256h528v0zM896 512v-136v-136h-256v272h256v0z" />
    <glyph glyph-name="h" unicode="h" 
d="M384 1024v-512v-512h-256v1024h256v0zM656 512v-128v-128h-288v256h288v0zM896 1024v-512v-512h-256v1024h256v0z" />
    <glyph glyph-name="i" unicode="i" 
d="M896 1024v-128v-128h-768v256h768v0zM896 256v-128v-128h-768v256h768v0zM640 784v-272v-272h-256v544h256v0z" />
    <glyph glyph-name="j" unicode="j" 
d="M896 1024v-128v-128h-768v256h768v0zM400 256v-128v-128h-272v256h272v0zM640 784v-392v-392h-256v784h256v0z" />
    <glyph glyph-name="k" unicode="k" 
d="M384 1024v-512v-512h-256v1024h256v0zM640 768v-128v-128h-272v256h272v0zM896 1024v-128v-128h-256v256h256v0zM896 512v-256v-256h-256v512h256v0z" />
    <glyph glyph-name="l" unicode="l" 
d="M384 1024v-512v-512h-256v1024h256v0zM896 256v-128v-128h-528v256h528v0z" />
    <glyph glyph-name="m" unicode="m" 
d="M896 1024v-256v-256h-768v512h768v0zM384 528v-264v-264h-256v528h256v0zM896 528v-264v-264h-256v528h256v0z" />
    <glyph glyph-name="n" unicode="n" 
d="M384 1024v-512v-512h-256v1024h256v0zM640 1024v-128v-128h-272v256h272v0zM896 768v-384v-384h-256v768h256v0z" />
    <glyph glyph-name="o" unicode="o" 
d="M384 1024v-512v-512h-256v1024h256v0zM656 1024v-128v-128h-288v256h288v0zM656 256v-128v-128h-288v256h288v0zM896 1024v-512v-512h-256v1024h256v0z" />
    <glyph glyph-name="p" unicode="p" 
d="M896 1024v-256v-256h-768v512h768v0zM384 528v-264v-264h-256v528h256v0z" />
    <glyph glyph-name="q" unicode="q" 
d="M896 1024v-256v-256h-768v512h768v0zM896 528v-264v-264h-256v528h256v0z" />
    <glyph glyph-name="r" unicode="r" 
d="M384 1024v-512v-512h-256v1024h256v0zM640 1024v-128v-128h-272v256h272v0zM640 512v-128v-128h-272v256h272v0zM896 768v-128v-128h-256v256h256v0zM896 256v-128v-128h-256v256h256v0z" />
    <glyph glyph-name="s" unicode="s" 
d="M896 1024v-128v-128h-768v256h768v0zM384 784v-136v-136h-256v272h256v0zM400 256v-128v-128h-272v256h272v0zM896 512v-256v-256h-512v512h512v0zM400 256v-128v-128h-272v256h272v0zM400 256v-128v-128h-272v256h272v0z" />
    <glyph glyph-name="t" unicode="t" 
d="M896 1024v-128v-128h-768v256h768v0zM640 784v-392v-392h-256v784h256v0z" />
    <glyph glyph-name="u" unicode="u" 
d="M384 1024v-512v-512h-256v1024h256v0zM656 256v-128v-128h-288v256h288v0zM896 1024v-512v-512h-256v1024h256v0z" />
    <glyph glyph-name="v" unicode="v" 
d="M384 1024v-384v-384h-256v768h256v0zM640 256v-128v-128h-256v256h256v0zM896 1024v-384v-384h-256v768h256v0z" />
    <glyph glyph-name="w" unicode="w" 
d="M384 1024v-264v-264h-256v528h256v0zM896 512v-256v-256h-768v512h768v0zM896 1024v-264v-264h-256v528h256v0z" />
    <glyph glyph-name="x" unicode="x" 
d="M384 1024v-128v-128h-256v256h256v0zM384 512v-256v-256h-256v512h256v0zM640 768v-128v-128h-256v256h256v0zM896 1024v-128v-128h-256v256h256v0zM896 512v-256v-256h-256v512h256v0z" />
    <glyph glyph-name="y" unicode="y" 
d="M384 1024v-256v-256h-256v512h256v0zM640 512v-256v-256h-256v512h256v0zM896 1024v-256v-256h-256v512h256v0z" />
    <glyph glyph-name="z" unicode="z" 
d="M384 1024v-128v-128h-255v256h255v0zM384 1024v-128v-128h-255v256h255v0zM640 1024v-256v-256h-511v512h511v0zM896 256v-128v-128h-767v256h767v0zM896 1024v-128v-128h-272v256h272v0zM896 512v-128v-128h-256v256h256v0zM640 1024v-128v-128h-256v256h256v0zM384 256
v-128v-128h-255v256h255v0zM640 256v-128v-128h-256v256h256v0zM896 1024v-128v-128h-256v256h256v0zM896 512v-128v-128h-256v256h256v0zM896 256v-128v-128h-256v256h256v0zM640 1024v-128v-128h-256v256h256v0zM384 256v-128v-128h-255v256h255v0zM640 256v-128v-128
h-256v256h256v0zM896 1024v-128v-128h-256v256h256v0zM896 512v-136v-136h-256v272h256v0zM896 256v-128v-128h-256v256h256v0z" />
  </font>
</defs>
</svg>
